<svg width="25" height="25" viewBox="0 0 25 25" fill="none" xmlns="http://www.w3.org/2000/svg">
<path d="M11.39 1.78881C11.7677 0.548734 13.5234 0.54873 13.9011 1.78881L15.8001 8.0231C15.9684 8.57561 16.4781 8.95316 17.0557 8.95316H23.3725C24.6233 8.95316 25.1652 10.5369 24.1765 11.3031L18.9234 15.3741C18.4928 15.7078 18.3131 16.2729 18.4719 16.794L20.4435 23.2666C20.8164 24.4909 19.3955 25.4704 18.3839 24.6865L13.4495 20.8624C12.9763 20.4956 12.3148 20.4956 11.8415 20.8624L6.90715 24.6865C5.89553 25.4704 4.47466 24.4909 4.8476 23.2666L6.81922 16.794C6.97796 16.2729 6.79827 15.7078 6.36766 15.3741L1.11462 11.3031C0.125907 10.5369 0.667747 8.95316 1.91862 8.95316H8.23539C8.81295 8.95316 9.32264 8.57561 9.49094 8.0231L11.39 1.78881Z" fill="#D9D9D9"/>
</svg>
