<svg width="24" height="33" viewBox="0 0 24 33" fill="none" xmlns="http://www.w3.org/2000/svg">
<path d="M12.3521 0.140625C5.92456 0.140625 0.714111 5.30284 0.714111 11.6707C0.714111 18.0385 12.7065 32.5621 12.7065 32.5621C12.7065 32.5621 23.9903 18.0385 23.9903 11.6707C23.9903 5.30284 18.7796 0.140625 12.3521 0.140625ZM12.3521 2.48104C17.475 2.48104 21.6279 6.59539 21.6279 11.6707C21.6279 16.746 17.475 20.8603 12.3521 20.8603C7.22926 20.8603 3.07634 16.746 3.07634 11.6707C3.07634 6.59539 7.22926 2.48104 12.3521 2.48104Z" fill="white"/>
<path d="M12.3521 0.140625C5.92456 0.140625 0.714111 5.30284 0.714111 11.6707C0.714111 18.0385 12.7065 32.5621 12.7065 32.5621C12.7065 32.5621 23.9903 18.0385 23.9903 11.6707C23.9903 5.30284 18.7796 0.140625 12.3521 0.140625ZM12.3521 2.48104C17.475 2.48104 21.6279 6.59539 21.6279 11.6707C21.6279 16.746 17.475 20.8603 12.3521 20.8603C7.22926 20.8603 3.07634 16.746 3.07634 11.6707C3.07634 6.59539 7.22926 2.48104 12.3521 2.48104Z" fill="url(#paint0_linear_106_1345)"/>
<path d="M17.555 13.0316L15.6182 12.0643C15.581 12.0463 15.5577 12.0084 15.5583 11.9672V11.4335L15.6257 11.3408C15.8726 10.9919 16.0739 10.6131 16.2249 10.2135C16.5688 9.98515 16.7757 9.60031 16.7761 9.18799V8.37323C16.7759 8.13226 16.7045 7.89671 16.5709 7.696V7.26844C16.6164 6.67763 16.4258 6.09286 16.0406 5.6419C15.5404 5.07082 14.7585 4.78228 13.7099 4.78228C13.1975 4.77077 12.688 4.86281 12.212 5.05288C11.7363 4.86237 11.2267 4.77031 10.7142 4.78228C9.66564 4.78228 8.88374 5.07231 8.38344 5.6419C8.00093 6.09137 7.81051 6.67277 7.85319 7.26096V7.696C7.72121 7.89619 7.6509 8.1306 7.65098 8.37024V9.18052C7.65026 9.50186 7.77615 9.8106 8.00148 10.0401C8.14557 10.5318 8.36975 10.9965 8.66505 11.4155V11.9462C8.66501 11.9861 8.64319 12.0228 8.60813 12.0419L6.79718 13.0286C6.07197 13.4233 5.6209 14.182 5.62134 15.0065V15.8421C5.62134 16.0898 5.82253 16.2906 6.0707 16.2906H18.3534C18.6016 16.2906 18.8028 16.0898 18.8028 15.8421V15.0468C18.8053 14.1927 18.3215 13.4114 17.555 13.0316ZM17.9614 15.4485H15.8694V15.0978C15.8719 14.2341 15.3893 13.4439 14.6246 13.0599L12.6925 12.0818C12.6554 12.0635 12.6321 12.0252 12.6327 11.9835V11.4438L12.7 11.3501C12.9462 10.9973 13.1471 10.6143 13.2977 10.2102C13.6408 9.97921 13.8472 9.59005 13.8476 9.1731V8.34918C13.8474 8.1055 13.7762 7.8673 13.6429 7.66434V7.23197C13.6848 6.67089 13.5198 6.11398 13.1797 5.66879C13.3774 5.63768 13.5773 5.62252 13.7774 5.6234C14.5514 5.6234 15.1058 5.81241 15.4286 6.18431C15.6532 6.45618 15.7642 6.80602 15.7379 7.15941C15.737 7.17603 15.737 7.19268 15.7379 7.2093V7.81401C15.7381 7.92569 15.7791 8.03335 15.8529 8.11636C15.9091 8.17764 15.9406 8.25802 15.9411 8.34162V9.161C15.9389 9.29283 15.8605 9.41111 15.7409 9.46336C15.6269 9.5146 15.5392 9.61156 15.4988 9.73094C15.3708 10.1135 15.1891 10.4755 14.9594 10.8058C14.916 10.8693 14.8712 10.9283 14.8293 10.9782C14.7628 11.0594 14.7264 11.1615 14.7262 11.2669V11.9669C14.7259 12.3516 14.9414 12.7031 15.2821 12.8739L17.2142 13.8717C17.6742 14.1026 17.9641 14.5783 17.9614 15.0978V15.4485Z" fill="white"/>
<path d="M17.555 13.0316L15.6182 12.0643C15.581 12.0463 15.5577 12.0084 15.5583 11.9672V11.4335L15.6257 11.3408C15.8726 10.9919 16.0739 10.6131 16.2249 10.2135C16.5688 9.98515 16.7757 9.60031 16.7761 9.18799V8.37323C16.7759 8.13226 16.7045 7.89671 16.5709 7.696V7.26844C16.6164 6.67763 16.4258 6.09286 16.0406 5.6419C15.5404 5.07082 14.7585 4.78228 13.7099 4.78228C13.1975 4.77077 12.688 4.86281 12.212 5.05288C11.7363 4.86237 11.2267 4.77031 10.7142 4.78228C9.66564 4.78228 8.88374 5.07231 8.38344 5.6419C8.00093 6.09137 7.81051 6.67277 7.85319 7.26096V7.696C7.72121 7.89619 7.6509 8.1306 7.65098 8.37024V9.18052C7.65026 9.50186 7.77615 9.8106 8.00148 10.0401C8.14557 10.5318 8.36975 10.9965 8.66505 11.4155V11.9462C8.66501 11.9861 8.64319 12.0228 8.60813 12.0419L6.79718 13.0286C6.07197 13.4233 5.6209 14.182 5.62134 15.0065V15.8421C5.62134 16.0898 5.82253 16.2906 6.0707 16.2906H18.3534C18.6016 16.2906 18.8028 16.0898 18.8028 15.8421V15.0468C18.8053 14.1927 18.3215 13.4114 17.555 13.0316ZM17.9614 15.4485H15.8694V15.0978C15.8719 14.2341 15.3893 13.4439 14.6246 13.0599L12.6925 12.0818C12.6554 12.0635 12.6321 12.0252 12.6327 11.9835V11.4438L12.7 11.3501C12.9462 10.9973 13.1471 10.6143 13.2977 10.2102C13.6408 9.97921 13.8472 9.59005 13.8476 9.1731V8.34918C13.8474 8.1055 13.7762 7.8673 13.6429 7.66434V7.23197C13.6848 6.67089 13.5198 6.11398 13.1797 5.66879C13.3774 5.63768 13.5773 5.62252 13.7774 5.6234C14.5514 5.6234 15.1058 5.81241 15.4286 6.18431C15.6532 6.45618 15.7642 6.80602 15.7379 7.15941C15.737 7.17603 15.737 7.19268 15.7379 7.2093V7.81401C15.7381 7.92569 15.7791 8.03335 15.8529 8.11636C15.9091 8.17764 15.9406 8.25802 15.9411 8.34162V9.161C15.9389 9.29283 15.8605 9.41111 15.7409 9.46336C15.6269 9.5146 15.5392 9.61156 15.4988 9.73094C15.3708 10.1135 15.1891 10.4755 14.9594 10.8058C14.916 10.8693 14.8712 10.9283 14.8293 10.9782C14.7628 11.0594 14.7264 11.1615 14.7262 11.2669V11.9669C14.7259 12.3516 14.9414 12.7031 15.2821 12.8739L17.2142 13.8717C17.6742 14.1026 17.9641 14.5783 17.9614 15.0978V15.4485Z" fill="url(#paint1_linear_106_1345)"/>
<defs>
<linearGradient id="paint0_linear_106_1345" x1="-4.66208" y1="5.32126" x2="25.9118" y2="30.1992" gradientUnits="userSpaceOnUse">
<stop stop-color="#5322CE"/>
<stop offset="1" stop-color="#7F59FF"/>
</linearGradient>
<linearGradient id="paint1_linear_106_1345" x1="2.57677" y1="6.62034" x2="13.295" y2="20.5332" gradientUnits="userSpaceOnUse">
<stop stop-color="#5322CE"/>
<stop offset="1" stop-color="#7F59FF"/>
</linearGradient>
</defs>
</svg>
